<svg width="23" height="26" viewBox="0 0 23 26" fill="none" xmlns="http://www.w3.org/2000/svg">
<path d="M20.6822 6.91929C20.6625 6.76879 20.5884 6.6307 20.4738 6.53107C20.3593 6.43144 20.2123 6.37714 20.0605 6.37843H16.6351V5.13507C16.6351 3.77317 16.0941 2.46704 15.131 1.50403C14.168 0.541015 12.8619 0 11.5 0C10.1381 0 8.83197 0.541015 7.86895 1.50403C6.90594 2.46704 6.36493 3.77317 6.36493 5.13507V6.37843H2.93326C2.78147 6.37714 2.63445 6.43144 2.51993 6.53107C2.40541 6.6307 2.3313 6.76879 2.31158 6.91929L0.00514588 24.4134C-0.00659136 24.504 0.00180833 24.5961 0.0297468 24.6832C0.0576853 24.7702 0.104475 24.85 0.166783 24.9169C0.427888 25.1967 0.71386 25.4826 1.0247 25.7624C1.13871 25.866 1.28715 25.9236 1.44123 25.924H21.5588C21.7128 25.9236 21.8613 25.866 21.9753 25.7624C22.2799 25.4826 22.597 25.1967 22.8332 24.9169C22.8955 24.85 22.9423 24.7702 22.9703 24.6832C22.9982 24.5961 23.0066 24.504 22.9949 24.4134L20.6822 6.91929ZM7.62694 5.12264C7.62694 4.09049 8.03695 3.10062 8.76679 2.37078C9.49663 1.64094 10.4865 1.23093 11.5186 1.23093C12.5508 1.23093 13.5407 1.64094 14.2705 2.37078C15.0003 3.10062 15.4104 4.09049 15.4104 5.12264V6.366H7.60829L7.62694 5.12264ZM21.3039 24.6807H1.68368L1.27337 24.2828L3.47412 7.62179H19.5197L21.7204 24.2828L21.3039 24.6807Z" fill="white"/>
</svg>
