<svg width="66" height="66" viewBox="0 0 66 66" fill="none" xmlns="http://www.w3.org/2000/svg">
<path d="M24.75 20.625C24.4765 20.625 24.2142 20.5164 24.0208 20.323C23.8274 20.1296 23.7188 19.8673 23.7188 19.5938H21.6562C21.6562 21.2994 23.0443 22.6875 24.75 22.6875C26.4557 22.6875 27.8438 21.2994 27.8438 19.5938H25.7812C25.7812 19.8673 25.6726 20.1296 25.4792 20.323C25.2858 20.5164 25.0235 20.625 24.75 20.625ZM33 22.6875C34.7057 22.6875 36.0938 21.2994 36.0938 19.5938H34.0312C34.0312 19.8673 33.9226 20.1296 33.7292 20.323C33.5358 20.5164 33.2735 20.625 33 20.625C32.7265 20.625 32.4642 20.5164 32.2708 20.323C32.0774 20.1296 31.9688 19.8673 31.9688 19.5938H29.9062C29.9062 21.2994 31.2943 22.6875 33 22.6875Z" fill="white"/>
<path d="M42.206 38.5956L34.9058 37.2673L34.1983 33.7312C34.914 33.3496 35.5884 32.8855 36.2154 32.3513L46.6826 34.9687C47.0766 35.0688 47.4865 35.0902 47.8888 35.0314C48.291 34.9726 48.6777 34.8349 49.0265 34.6262C49.3754 34.4174 49.6795 34.1418 49.9215 33.8151C50.1634 33.4884 50.3384 33.1171 50.4364 32.7226C50.5369 32.3288 50.5581 31.919 50.4988 31.5169C50.4395 31.1149 50.3008 30.7286 50.0909 30.3806C49.8832 30.0303 49.6077 29.7249 49.2804 29.4825C48.9532 29.2401 48.5808 29.0654 48.1852 28.9688L42.0007 27.422C42.7003 27.0878 43.2913 26.563 43.7058 25.9079C44.1203 25.2528 44.3414 24.494 44.3438 23.7188C44.3438 22.7772 44.0148 21.9192 43.4816 21.2242C44.0437 19.2978 44.3438 17.3106 44.3438 15.3017V11.3438C44.3438 9.81028 43.494 8.48616 42.2503 7.77563C41.9337 4.00435 38.7688 1.03125 34.9171 1.03125C33.4631 1.02988 32.0414 1.46022 30.8323 2.26772L29.5938 3.09375H26.3742C19.2246 3.09375 13.4062 8.91207 13.4062 16.0617C13.4062 17.1198 13.5362 18.1778 13.794 19.207L14.2911 21.1963C13.7216 21.9141 13.4099 22.8025 13.4062 23.7188C13.4062 25.9937 15.2563 27.8438 17.5312 27.8438H18.3191C19.3088 30.3651 21.1637 32.4518 23.5517 33.7301L22.8443 37.2673L15.544 38.5945C13.2081 39.0197 11.0954 40.251 9.57411 42.0738C8.05278 43.8967 7.21924 46.1955 7.21875 48.5698V64.9688H50.5312V48.5698C50.528 46.2681 49.745 44.0355 48.3099 42.2359C46.7809 40.326 44.6131 39.0331 42.206 38.5956ZM30.6859 28.843C30.4178 28.777 30.1929 28.61 30.0517 28.3738C29.9104 28.1377 29.8691 27.8613 29.9382 27.5901C29.9705 27.4583 30.0286 27.3343 30.1092 27.2252C30.1899 27.1161 30.2914 27.0242 30.4079 26.9547C30.5244 26.8852 30.6536 26.8396 30.7879 26.8205C30.9221 26.8014 31.0589 26.8092 31.1902 26.8434L32.8567 27.2601L32.3565 29.2597L30.6859 28.843ZM48.3213 31.4387C48.4244 31.6142 48.4735 31.8161 48.4625 32.0193C48.4515 32.2225 48.3808 32.418 48.2594 32.5813C48.1379 32.7446 47.971 32.8685 47.7795 32.9374C47.588 33.0064 47.3805 33.0174 47.1828 32.9691L34.3551 29.7608L34.8552 27.7613L47.6871 30.9705C47.9552 31.0365 48.18 31.2025 48.3213 31.4387ZM42.2555 15.9658C42.2124 17.2873 42.0317 18.6006 41.7161 19.8846C41.2395 19.695 40.7317 19.5964 40.2188 19.5938V17.1703C40.9689 16.9037 41.6605 16.4947 42.2555 15.9658ZM40.2188 25.7813H40.0269C40.1536 25.101 40.2178 24.4107 40.2188 23.7188V21.6563C41.3562 21.6563 42.2812 22.5813 42.2812 23.7188C42.2812 24.8562 41.3562 25.7813 40.2188 25.7813ZM17.5312 25.7813C16.3938 25.7813 15.4688 24.8562 15.4688 23.7188C15.4688 22.5813 16.3938 21.6563 17.5312 21.6563V23.7188C17.5312 24.4241 17.6045 25.1109 17.7282 25.7813H17.5312ZM17.5312 19.4195V19.5938C17.0208 19.5938 16.5361 19.6989 16.0844 19.8691L15.7936 18.7069C15.5781 17.8417 15.469 16.9534 15.4688 16.0617C15.4688 10.0485 20.361 5.15625 26.3742 5.15625H30.2187L31.977 3.98372C32.8474 3.40263 33.8706 3.0929 34.9171 3.09375C37.4333 3.09375 39.535 4.85925 40.0744 7.23319C39.0078 7.26977 37.997 7.71858 37.2546 8.48522C36.5122 9.25186 36.0961 10.2766 36.0938 11.3438H38.1562C38.1562 10.2063 39.0813 9.28125 40.2188 9.28125C41.3562 9.28125 42.2812 10.2063 42.2812 11.3438C42.2812 13.6187 40.4312 15.4688 38.1562 15.4688H26.2835C25.6035 15.4679 24.9516 15.1975 24.4708 14.7167C23.99 14.2359 23.7196 13.584 23.7188 12.904C23.7188 11.7985 24.4241 10.8209 25.4708 10.4723L26.1061 10.2609L25.4554 8.30363L24.8191 8.51607C23.8973 8.82177 23.0955 9.41041 22.5276 10.1982C21.9597 10.986 21.6548 11.9329 21.6562 12.904C21.6562 13.0773 21.6892 13.2423 21.7078 13.4104L20.5353 14.1137C19.6211 14.6657 18.8645 15.4438 18.3384 16.3731C17.8122 17.3024 17.5342 18.3516 17.5312 19.4195ZM19.5938 23.7188V19.4195C19.5938 17.9798 20.361 16.6238 21.5964 15.8823L22.3987 15.4007C22.816 16.0527 23.3904 16.5895 24.0692 16.9618C24.7479 17.334 25.5093 17.5299 26.2835 17.5313H38.1562V23.7188C38.1562 24.6242 38.0284 25.5111 37.7747 26.3649L31.6883 24.8428C30.8929 24.6465 30.0523 24.7726 29.3495 25.1935C28.6467 25.6144 28.1389 26.2961 27.9366 27.0899C27.8361 27.4837 27.8148 27.8935 27.8741 28.2956C27.9334 28.6976 28.0721 29.0839 28.282 29.4319C28.4897 29.7822 28.7652 30.0876 29.0925 30.33C29.4198 30.5724 29.7921 30.7471 30.1878 30.8437L33.6033 31.6975C32.1732 32.5496 30.5396 32.9996 28.875 33C23.7569 33 19.5938 28.8368 19.5938 23.7188ZM28.875 35.0625C30.022 35.061 31.1622 34.8854 32.2565 34.5417L32.8773 37.6458L28.875 40.0476L24.8727 37.6458L25.4925 34.5469C26.5609 34.881 27.6973 35.0625 28.875 35.0625ZM48.4688 62.9063H42.2812V51.5625H40.2188V62.9063H17.5312V51.5625H15.4688V62.9063H9.28125V48.5698C9.28125 46.7435 9.90928 44.9512 11.0519 43.5249C12.2686 42.0023 13.9955 40.9718 15.9132 40.624L20.2249 39.8403L23.3052 47.0271L28.875 42.571L34.4448 47.026L37.5241 39.8393L41.8368 40.624C43.6981 40.9614 45.3818 41.9418 46.5939 43.3941C47.806 44.8463 48.4696 46.6782 48.4688 48.5698V62.9063Z" fill="white"/>
<path d="M49.8011 14.4375H49.5C47.7943 14.4375 46.4062 15.8307 46.4062 17.5942C46.4062 18.4037 46.7218 19.1647 47.2942 19.7381C47.5749 20.0201 47.9087 20.2437 48.2763 20.3959C48.644 20.5482 49.0382 20.626 49.4361 20.625H50.5312V18.5625H49.4371C49.3099 18.5627 49.1839 18.5378 49.0664 18.4891C48.9489 18.4405 48.8421 18.369 48.7523 18.2789C48.5698 18.0964 48.4688 17.853 48.4688 17.5416C48.4688 16.9672 48.9308 16.5 49.5 16.5H49.8011C50.5415 16.5008 51.2514 16.7953 51.7749 17.3188C52.2984 17.8424 52.5929 18.5522 52.5938 19.2926C52.5953 19.8117 52.4516 20.3209 52.1788 20.7625C51.9059 21.2041 51.5149 21.5605 51.05 21.7913C50.2724 22.1768 49.6185 22.7724 49.1622 23.5106C48.706 24.2488 48.4658 25.1001 48.4688 25.9679V27.8438H50.5312V25.9679C50.5312 24.9738 51.083 24.0807 51.9729 23.6362C52.7811 23.235 53.4608 22.6154 53.9351 21.8477C54.4093 21.0801 54.6591 20.195 54.6562 19.2926C54.6549 18.0054 54.1429 16.7713 53.2327 15.861C52.3225 14.9508 51.0884 14.4389 49.8011 14.4375Z" fill="white"/>
<path d="M58.7812 7.21875H57.75C57.4765 7.21875 57.2142 7.3274 57.0208 7.5208C56.8274 7.71419 56.7188 7.9765 56.7188 8.25C56.7188 8.52351 56.8274 8.78581 57.0208 8.9792C57.2142 9.1726 57.4765 9.28125 57.75 9.28125C59.4557 9.28125 60.8438 7.89319 60.8438 6.1875C60.8438 4.48181 59.4557 3.09375 57.75 3.09375H57.6077C56.2785 3.09566 55.0043 3.62453 54.0644 4.56441C53.1245 5.50429 52.5957 6.7785 52.5938 8.10769C52.5928 8.93337 52.7962 9.74645 53.1858 10.4745C53.5753 11.2025 54.1389 11.8228 54.8264 12.2801C56.044 13.0899 57.0422 14.1884 57.7323 15.4776C58.4223 16.7668 58.7827 18.2068 58.7812 19.669C58.7797 21.1355 58.4383 22.5817 57.784 23.8941L55.5782 28.3047L53.7333 27.3818L55.9391 22.9711C56.4503 21.9453 56.7171 20.8151 56.7188 19.669C56.7198 18.5464 56.4431 17.441 55.9134 16.4512C55.3837 15.4614 54.6174 14.618 53.6828 13.9961C51.71 12.6813 50.5312 10.4796 50.5312 8.10769C50.5334 6.23157 51.2797 4.43292 52.6063 3.1063C53.9329 1.77969 55.7316 1.03343 57.6077 1.03125H57.75C60.5932 1.03125 62.9062 3.34434 62.9062 6.1875C62.9062 9.03066 60.5932 11.3437 57.75 11.3437C56.0443 11.3437 54.6562 9.95569 54.6562 8.25C54.6562 6.54431 56.0443 5.15625 57.75 5.15625H58.7812V7.21875Z" fill="white"/>
</svg>
