<svg width="65" height="61" viewBox="0 0 65 61" fill="none" xmlns="http://www.w3.org/2000/svg">
<path d="M42.6773 40.4965L40.7269 41.9592C39.4609 42.9087 37.9211 43.4219 36.3386 43.4219C34.7562 43.4219 33.2164 42.9087 31.9503 41.9592L30 40.4965L28.0496 41.9592C26.7836 42.9087 25.2438 43.4219 23.6613 43.4219C22.0789 43.4219 20.5391 42.9087 19.2731 41.9592L17.3227 40.4965C18.6053 39.2138 20.1689 38.2475 21.8897 37.6739L22.1986 37.5709L20.5931 37.3703C16.5417 36.8638 12.7096 35.2456 9.5213 32.6951C12.7118 30.7808 16.3627 29.7696 20.0834 29.7695H20.2482C17.796 28.2369 15.6974 26.2005 14.0917 23.7955C12.486 21.3904 11.4098 18.6715 10.9345 15.819L10.4965 13.1915L15.6289 14.1247C17.3866 14.4442 19.0558 15.1352 20.5251 16.1515C21.9944 17.1678 23.2298 18.4859 24.1489 20.0178V17.3029C24.1489 11.5023 26.2244 5.89307 30 1.48944L30.0016 1.49127C33.7756 5.89403 35.8503 11.5015 35.8508 17.3005L35.851 20.0177C36.7702 18.4858 38.0056 17.1676 39.4749 16.1514C40.9441 15.1351 42.6134 14.4441 44.371 14.1245L49.5035 13.1915L49.0655 15.819C48.5901 18.6715 47.5139 21.3904 45.9082 23.7954C44.3025 26.2005 42.204 28.2369 39.7517 29.7695H39.9166C43.6373 29.7695 47.2881 30.7808 50.4787 32.6951C47.2904 35.2456 43.4583 36.8638 39.4069 37.3703L37.8014 37.5709L38.1103 37.6739C39.8311 38.2475 41.3947 39.2138 42.6773 40.4965Z" fill="white"/>
<path d="M54.3794 50.652C54.3794 49.354 53.3233 48.2979 52.0252 48.2979H8.54613C6.93307 48.2979 5.62061 49.6103 5.62061 51.2234V57.0744C5.62061 58.6875 6.93307 60 8.54613 60H52.0252C53.3233 60 54.3794 58.9438 54.3794 57.6458C54.3794 57.0711 54.175 56.528 53.8005 56.0993C54.1752 55.6714 54.381 55.1215 54.3794 54.5527V53.7449C54.3794 53.1703 54.175 52.6271 53.8005 52.1984C54.1752 51.7706 54.3811 51.2208 54.3794 50.652ZM21.2234 50.2482H23.1738V58.0496H21.2234V50.2482ZM19.2731 58.0496H17.3227V50.2482H19.2731V58.0496ZM7.57096 57.0744V51.2234C7.57096 50.6857 8.00845 50.2482 8.54613 50.2482H15.3724V58.0496H8.54613C8.00845 58.0496 7.57096 57.6121 7.57096 57.0744ZM52.3107 53.4595C52.3859 53.5345 52.429 53.6388 52.429 53.7451V54.5529C52.429 54.6592 52.3859 54.7634 52.3107 54.8385L51.0499 56.0994L52.3107 57.3603C52.3859 57.4354 52.429 57.5396 52.429 57.6459C52.4289 57.753 52.3864 57.8556 52.3106 57.9313C52.2349 58.0071 52.1323 58.0496 52.0252 58.0497H50.4787V54.149H48.5283V58.0497H25.1241V50.2483H48.5283V52.1987H50.4787V50.2483H52.0252C52.1323 50.2484 52.2349 50.291 52.3106 50.3667C52.3864 50.4424 52.4289 50.5451 52.429 50.6522C52.429 50.7585 52.3859 50.8627 52.3107 50.9378L51.0499 52.1987L52.3107 53.4595Z" fill="white"/>
<path d="M30.9752 36.382V40.0089H29.0248V36.382L21.962 34.6162L22.4351 32.7242L29.0248 34.3716V32.1513L18.617 22.6898L19.9291 21.2465L29.0248 29.5155V11.2412H30.9752V29.5154L40.0709 21.2465L41.383 22.6898L30.9752 32.1513V34.3716L37.5648 32.7243L38.0379 34.6163L30.9752 36.382Z" fill="#FF8150"/>
<path d="M58.6953 38.4461C58.6953 41.9769 56 41.9769 56 45.5076C56 49.039 58.6953 49.039 58.6953 52.5703C58.6953 56.1015 56 56.1015 56 59.6328" stroke="white" stroke-width="1.5" stroke-miterlimit="10" stroke-linecap="round" stroke-linejoin="round"/>
<path d="M63.6232 24C63.6232 27.5309 60.9279 27.5309 60.9279 31.0617C60.9279 34.5929 63.6232 34.5929 63.6232 38.1242C63.6232 41.6554 60.9279 41.6554 60.9279 45.1868" stroke="white" stroke-width="1.5" stroke-miterlimit="10" stroke-linecap="round" stroke-linejoin="round"/>
</svg>
