<svg width="72" height="72" viewBox="0 0 72 72" fill="none" xmlns="http://www.w3.org/2000/svg">
<g clip-path="url(#clip0_28_419)">
<path d="M59.8354 15.1012C59.5559 15.1012 59.2878 14.9901 59.0901 14.7925C58.8924 14.5948 58.7814 14.3267 58.7814 14.0472C58.7814 13.3263 58.5477 13.0262 58.1605 12.5291C57.7108 11.9516 57.0949 11.1607 57.0949 9.71578C57.0949 8.271 57.7108 7.48027 58.1605 6.90272C58.5477 6.40561 58.7813 6.10566 58.7813 5.38495C58.7813 4.66411 58.5475 4.36416 58.1604 3.86705C57.7107 3.2895 57.0947 2.49877 57.0947 1.05398C57.0947 0.77445 57.2058 0.506365 57.4035 0.308705C57.6011 0.111044 57.8692 0 58.1487 0C58.4283 0 58.6964 0.111044 58.894 0.308705C59.0917 0.506365 59.2027 0.77445 59.2027 1.05398C59.2027 1.77469 59.4364 2.07464 59.8234 2.57175C60.2732 3.1493 60.8891 3.94017 60.8891 5.38495C60.8891 6.82973 60.2732 7.62047 59.8234 8.19802C59.4363 8.69513 59.2027 8.99508 59.2027 9.71578C59.2027 10.4366 59.4364 10.7367 59.8236 11.2338C60.2733 11.8114 60.8892 12.6023 60.8892 14.0472C60.8893 14.1856 60.862 14.3226 60.8091 14.4505C60.7561 14.5784 60.6785 14.6946 60.5807 14.7925C60.4828 14.8904 60.3666 14.968 60.2387 15.021C60.1109 15.0739 59.9738 15.1012 59.8354 15.1012ZM54.8757 15.1012C54.5961 15.1012 54.3281 14.9901 54.1304 14.7925C53.9327 14.5948 53.8217 14.3267 53.8217 14.0472C53.8217 13.3263 53.588 13.0262 53.2008 12.5291C52.7511 11.9516 52.1352 11.1607 52.1352 9.71578C52.1352 8.271 52.7511 7.48027 53.2008 6.90272C53.588 6.40561 53.8216 6.10566 53.8216 5.38495C53.8216 5.10542 53.9326 4.83733 54.1303 4.63967C54.3279 4.44201 54.596 4.33097 54.8755 4.33097C55.1551 4.33097 55.4232 4.44201 55.6208 4.63967C55.8185 4.83733 55.9295 5.10542 55.9295 5.38495C55.9295 6.82973 55.3136 7.62047 54.8639 8.19802C54.4767 8.69513 54.2432 8.99508 54.2432 9.71578C54.2432 10.4366 54.4769 10.7367 54.864 11.2338C55.3137 11.8114 55.9297 12.6023 55.9297 14.0472C55.9297 14.1856 55.9024 14.3227 55.8495 14.4505C55.7965 14.5784 55.7189 14.6946 55.621 14.7925C55.5231 14.8904 55.4069 14.968 55.2791 15.021C55.1512 15.0739 55.0141 15.1012 54.8757 15.1012ZM42.1282 69.892H30.286V59.1839C30.286 58.5453 30.0974 57.9251 29.7404 57.3902C29.6517 57.2573 29.534 57.1463 29.3961 57.0656L24.0245 53.9212C22.4045 52.9756 20.9951 51.7085 19.8828 50.1979L13.3065 41.2885C13.1778 41.1143 13.2219 40.9456 13.2595 40.8607C13.2972 40.7758 13.3927 40.6298 13.6083 40.6083L14.7313 40.4955C15.7143 40.3951 16.7041 40.6027 17.5639 41.0895L25.5829 45.6106C25.7433 45.701 25.9246 45.7478 26.1087 45.7464C26.2928 45.745 26.4733 45.6954 26.6322 45.6025C26.7912 45.5097 26.9231 45.3768 27.0147 45.2171C27.1063 45.0574 27.1546 44.8766 27.1546 44.6925V40.7386C27.1546 40.4591 27.0435 40.191 26.8459 39.9934C26.6482 39.7957 26.3801 39.6847 26.1006 39.6847C25.821 39.6847 25.553 39.7957 25.3553 39.9934C25.1576 40.191 25.0466 40.4591 25.0466 40.7386V42.8882L18.5994 39.2532C17.354 38.5512 15.9441 38.2556 14.5208 38.3979L13.3976 38.5107C12.4789 38.603 11.7068 39.162 11.3324 40.0061C10.9581 40.8502 11.062 41.7975 11.6103 42.5405L18.1866 51.4499C19.4777 53.1989 21.0835 54.6425 22.9594 55.7407L28.0854 58.7412C28.1461 58.8812 28.1778 59.0314 28.1778 59.1839V69.9562C28.1778 71.0831 29.0946 72.0001 30.2216 72.0001H42.1279C42.7099 72.0001 43.1819 71.5283 43.1819 70.9462C43.1819 70.364 42.7102 69.892 42.1282 69.892Z" fill="#FFFCFC"/>
<rect x="41" y="29" width="6" height="15" fill="#FFFCFC"/>
<rect x="48" y="29" width="6" height="15" fill="#FFFCFC"/>
<path d="M58.3545 16.8462H41.443V11.4231C41.443 8.87722 39.4277 6.73466 36.8821 6.69936C34.9908 6.67321 33.3531 7.78879 32.6124 9.39894C31.7513 8.68663 30.6606 8.31169 29.5436 8.34397C27.023 8.41302 25.0466 10.5459 25.0466 13.0674V16.8462H20.7577C19.8695 16.8462 19.1495 17.5662 19.1495 18.4543V22.3394C19.1495 23.2276 19.8695 23.9476 20.7577 23.9476H25.0466V35.8148C25.0466 36.3919 25.4913 36.8952 26.0681 36.9125C26.2092 36.9169 26.3498 36.8928 26.4814 36.8418C26.613 36.7908 26.733 36.7139 26.8344 36.6157C26.9357 36.5174 27.0163 36.3998 27.0713 36.2698C27.1263 36.1398 27.1546 36.0001 27.1546 35.8589V23.9476H32.1908V33.5871C32.1908 34.1643 32.6355 34.6676 33.2123 34.6849C33.3534 34.6892 33.4939 34.6652 33.6255 34.6142C33.7572 34.5632 33.8772 34.4863 33.9785 34.388C34.0799 34.2898 34.1604 34.1722 34.2154 34.0422C34.2705 33.9122 34.2988 33.7725 34.2988 33.6313V11.387C34.2988 10.0233 35.3571 8.86035 36.7198 8.80888C38.1523 8.75474 39.335 9.90449 39.335 11.3252V40.8344C39.335 43.3697 41.3393 45.4974 43.8742 45.5442C45.3402 45.5712 46.6563 44.9124 47.5227 43.8678C48.372 44.8917 49.6532 45.5451 51.0843 45.5451C51.9791 45.5458 52.8546 45.2855 53.6035 44.7959V51.4393C53.6035 53.5877 52.6924 55.6003 51.2018 57.1473C50.7311 57.6358 50.4721 58.282 50.4721 58.9684V69.892H47.1266C46.5495 69.892 46.0462 70.3368 46.0289 70.9138C46.0245 71.0549 46.0486 71.1954 46.0996 71.327C46.1506 71.4586 46.2275 71.5786 46.3258 71.6799C46.424 71.7812 46.5416 71.8618 46.6716 71.9168C46.8016 71.9718 46.9413 72.0001 47.0824 72.0001H50.5362C51.665 72.0001 52.58 71.0851 52.58 69.9563V58.9683C52.58 58.8317 52.6315 58.7005 52.7215 58.6081C54.6496 56.6263 55.7115 54.0124 55.7115 51.2475L55.7103 31.6656C55.7103 29.1148 53.6351 27.0396 51.0842 27.0396C49.6531 27.0396 48.3718 27.693 47.5226 28.7169C46.6734 27.693 45.3921 27.0396 43.961 27.0396C43.0667 27.0389 42.1916 27.299 41.4428 27.7881V23.9476H58.3544C59.2081 23.9476 59.9003 23.2554 59.9003 22.4017V18.3921C59.9004 17.5383 59.2083 16.8462 58.3545 16.8462ZM28.0362 21.8396H21.2575V18.9543H28.0362V21.8396ZM32.1907 21.8396H30.1442V18.9543H32.1907V21.8396ZM32.1907 16.8462H27.1545V12.9684C27.1545 11.5799 28.2841 10.4503 29.6725 10.4503C31.0609 10.4503 32.1907 11.5799 32.1907 12.9684V16.8462ZM48.5795 31.4063C48.7098 30.1393 49.7834 29.1478 51.0842 29.1478C52.4727 29.1478 53.6022 30.2773 53.6022 31.6658V40.9191C53.6022 41.9723 52.9516 42.8754 52.0315 43.2506C52.4052 42.9649 52.6475 42.5158 52.6475 42.009V41.3775C52.6475 41.2559 52.5992 41.1393 52.5133 41.0533C52.4273 40.9674 52.3107 40.9191 52.1891 40.9191H49.9792C49.8576 40.9191 49.741 40.9674 49.655 41.0533C49.569 41.1393 49.5207 41.2559 49.5207 41.3775V42.009C49.5207 42.5158 49.7629 42.965 50.1368 43.2506C49.2934 42.9066 48.6761 42.1191 48.5795 41.1785C48.5843 41.0926 48.5873 41.0062 48.5873 40.9191V31.6658C48.5873 31.5786 48.5843 31.4923 48.5795 31.4063ZM43.9611 29.1478C45.2621 29.1478 46.3356 30.1393 46.4658 31.4063C46.4608 31.4927 46.4582 31.5792 46.4581 31.6658V40.9191C46.4581 41.0061 46.461 41.0926 46.4658 41.1785C46.372 42.0905 45.7888 42.858 44.9846 43.2176C45.1635 43.0711 45.3076 42.8867 45.4065 42.6777C45.5054 42.4686 45.5566 42.2403 45.5564 42.009V41.3775C45.5564 41.2559 45.5081 41.1393 45.4221 41.0533C45.3361 40.9674 45.2195 40.9191 45.0979 40.9191H42.888C42.7664 40.9191 42.6498 40.9674 42.5639 41.0533C42.4779 41.1393 42.4296 41.2559 42.4296 41.3775V42.009C42.4296 42.5296 42.6851 42.9895 43.0763 43.2737C42.1236 42.9145 41.4428 41.9961 41.4428 40.9192V31.6659C41.443 30.2773 42.5726 29.1478 43.9611 29.1478ZM57.7002 21.8396H41.443V18.9543H57.7002V21.8396Z" fill="#FFFCFC"/>
<rect x="41" y="38" width="6" height="5" rx="2.5" fill="#FF733B"/>
<rect x="48" y="38" width="6" height="5" rx="2.5" fill="#FF733B"/>
</g>
<defs>
<clipPath id="clip0_28_419">
<rect width="72" height="72" fill="white"/>
</clipPath>
</defs>
</svg>
