<svg width="32" height="32" viewBox="0 0 32 32" fill="none" xmlns="http://www.w3.org/2000/svg">
<g id="Frame" clip-path="url(#clip0_410_202)">
<g id="Group">
<path id="Vector" d="M21.1712 8.07703L2.51201 14.4999C2.33276 14.5616 2.17218 14.668 2.04539 14.809C1.91859 14.95 1.82975 15.1209 1.78722 15.3056C1.74469 15.4904 1.74988 15.6829 1.80229 15.8652C1.8547 16.0474 1.95261 16.2132 2.0868 16.3472L2.10949 16.3699C2.21554 16.4758 2.33418 16.5683 2.46275 16.6453L8.47787 20.2544C8.5581 20.3024 8.65108 20.3247 8.74435 20.3183C8.83761 20.3119 8.9267 20.2772 8.99965 20.2188L14.8748 15.5194C14.9733 15.4421 15.0968 15.4035 15.2219 15.411C15.347 15.4185 15.465 15.4715 15.5536 15.5601C15.6422 15.6487 15.6952 15.7667 15.7027 15.8918C15.7102 16.0169 15.6716 16.1404 15.5943 16.2389L10.8949 22.114C10.8365 22.187 10.8018 22.2761 10.7954 22.3694C10.789 22.4626 10.8113 22.5556 10.8593 22.6358L14.4677 28.6503C14.5448 28.7789 14.6373 28.8975 14.7432 29.0036L14.7659 29.0263C14.8999 29.1603 15.0657 29.258 15.2479 29.3103C15.4301 29.3626 15.6226 29.3677 15.8072 29.3251C15.9919 29.2825 16.1627 29.1936 16.3036 29.0669C16.4445 28.9401 16.5508 28.7796 16.6125 28.6004L23.0347 9.94185C23.1242 9.682 23.1388 9.40225 23.077 9.13449C23.0151 8.86673 22.8793 8.62172 22.685 8.4274C22.4907 8.23308 22.2457 8.09726 21.9779 8.03543C21.7101 7.9736 21.431 7.98759 21.1712 8.07703Z" fill="white"/>
</g>
</g>
<defs>
<clipPath id="clip0_410_202">
<rect width="22" height="22" fill="white" transform="translate(0 15.5564) rotate(-45)"/>
</clipPath>
</defs>
</svg>
