<svg width="24" height="24" viewBox="0 0 24 24" fill="none" xmlns="http://www.w3.org/2000/svg">
<g clip-path="url(#clip0_410_170)">
<path d="M23.6615 9.53103C23.664 9.50689 23.6643 9.48258 23.6628 9.45829C23.6713 9.31832 23.6143 9.17654 23.4965 9.08227L20.708 6.85059V5.74909C20.708 4.71372 19.8657 3.8714 18.8303 3.8714H16.9856L12.3579 0.167722C12.3577 0.167518 12.3576 0.167302 12.3575 0.167086C12.2673 0.0544904 12.1338 -0.00247362 12 8.23776e-05C11.8661 -0.00247362 11.7326 0.0544784 11.6425 0.167086C11.6423 0.16729 11.6422 0.167506 11.642 0.167722L7.01433 3.8714H5.16959C4.13421 3.8714 3.2919 4.71372 3.2919 5.74909V6.85061L0.503458 9.08226C0.385642 9.17653 0.328594 9.31831 0.337078 9.45828C0.335542 9.48252 0.335984 9.50685 0.338397 9.53102C0.336777 9.54653 0.335956 9.56212 0.335938 9.57771V21.8855C0.335938 23.0514 1.337 24 2.56746 24H21.4325C22.6629 24 23.664 23.0514 23.664 21.8855V9.57773C23.664 9.56213 23.6632 9.54654 23.6615 9.53103ZM20.708 7.99455L22.5369 9.45828L20.708 10.922V7.99455ZM12 1.02519L15.5562 3.87138H8.4437L12 1.02519ZM4.18505 5.74907C4.18505 5.20621 4.62673 4.76453 5.16959 4.76453H18.8303C19.3732 4.76453 19.8149 5.20621 19.8149 5.74907V11.6368L12 17.8914L4.18505 11.6368V5.74907ZM3.2919 7.99455V10.922L1.46299 9.45828L3.2919 7.99455ZM1.2291 21.8855V10.4151L8.49751 16.2322L1.35833 22.4086C1.27556 22.25 1.2291 22.0726 1.2291 21.8855ZM21.4325 23.1068H2.56747C2.37785 23.1068 2.19744 23.0704 2.03384 23.0053L9.20666 16.7998L11.642 18.7489C11.6422 18.7491 11.6423 18.7493 11.6425 18.7495C11.7307 18.8597 11.8604 18.917 11.9914 18.917C11.9943 18.917 11.9971 18.9167 12 18.9167C12.0028 18.9167 12.0057 18.917 12.0085 18.917C12.1395 18.917 12.2693 18.8597 12.3575 18.7495C12.3576 18.7493 12.3577 18.7491 12.3579 18.7489L14.7933 16.7998L21.9661 23.0053C21.8025 23.0704 21.6221 23.1068 21.4325 23.1068ZM22.7708 21.8855C22.7708 22.0726 22.7243 22.25 22.6416 22.4086L15.5024 16.2322L22.7708 10.4151V21.8855ZM7.40397 8.99005H16.6431C16.8897 8.99005 17.0897 8.79012 17.0897 8.54347C17.0897 8.29682 16.8897 8.09689 16.6431 8.09689H7.40397C7.15733 8.09689 6.95739 8.29682 6.95739 8.54347C6.95739 8.79011 7.15733 8.99005 7.40397 8.99005ZM17.0897 11.2303C17.0897 10.9837 16.8897 10.7838 16.6431 10.7838H7.40397C7.15733 10.7838 6.95739 10.9837 6.95739 11.2303C6.95739 11.477 7.15733 11.6769 7.40397 11.6769H16.6431C16.8897 11.6769 17.0897 11.477 17.0897 11.2303Z" fill="white"/>
</g>
<defs>
<clipPath id="clip0_410_170">
<rect width="24" height="24" fill="white"/>
</clipPath>
</defs>
</svg>
