<svg width="22" height="22" viewBox="0 0 22 22" fill="none" xmlns="http://www.w3.org/2000/svg">
<g clip-path="url(#clip0_158_233)">
<path d="M16.4996 0H5.49987C2.47521 0 0 2.47521 0 5.49987V16.5001C0 19.524 2.47521 22 5.49987 22H16.4996C19.5243 22 21.9995 19.524 21.9995 16.5001V5.49987C21.9995 2.47521 19.5243 0 16.4996 0ZM20.1661 16.5001C20.1661 18.5213 18.5219 20.1666 16.4996 20.1666H5.49987C3.4784 20.1666 1.83338 18.5213 1.83338 16.5001V5.49987C1.83338 3.47813 3.4784 1.83338 5.49987 1.83338H16.4996C18.5219 1.83338 20.1661 3.47813 20.1661 5.49987V16.5001Z" fill="white"/>
<path d="M16.959 6.41644C17.7183 6.41644 18.3339 5.80084 18.3339 5.04147C18.3339 4.2821 17.7183 3.6665 16.959 3.6665C16.1996 3.6665 15.584 4.2821 15.584 5.04147C15.584 5.80084 16.1996 6.41644 16.959 6.41644Z" fill="white"/>
<path d="M10.9999 5.49988C7.96173 5.49988 5.5 7.96187 5.5 10.9997C5.5 14.0365 7.96173 16.5001 10.9999 16.5001C14.0371 16.5001 16.4997 14.0365 16.4997 10.9997C16.4997 7.96187 14.0371 5.49988 10.9999 5.49988ZM10.9999 14.6668C8.97507 14.6668 7.33338 13.0251 7.33338 10.9997C7.33338 8.97441 8.97507 7.33326 10.9999 7.33326C13.0247 7.33326 14.6664 8.97441 14.6664 10.9997C14.6664 13.0251 13.0247 14.6668 10.9999 14.6668Z" fill="white"/>
</g>
<defs>
<clipPath id="clip0_158_233">
<rect width="22" height="22" fill="white"/>
</clipPath>
</defs>
</svg>
