<svg width="27" height="27" viewBox="0 0 27 27" fill="none" xmlns="http://www.w3.org/2000/svg">
<path d="M25.8035 24.7318L19.8902 18.8193C21.7086 16.7576 22.7101 14.1019 22.7057 11.3529C22.7057 8.32013 21.525 5.46905 19.3808 3.32487C17.2367 1.1807 14.3856 0 11.3536 0C8.32165 0 5.46981 1.1807 3.32487 3.32412C1.17994 5.46754 0 8.31937 0 11.3521C0 14.3848 1.1807 17.2352 3.32487 19.3793C5.46905 21.5235 8.32013 22.705 11.3529 22.705C14.1305 22.705 16.7493 21.7036 18.8193 19.8887L24.7318 25.8013C24.802 25.8718 24.8853 25.9278 24.9772 25.966C25.069 26.0041 25.1675 26.0238 25.2669 26.0238C25.3664 26.0238 25.4649 26.0041 25.5567 25.966C25.6485 25.9278 25.7319 25.8718 25.802 25.8013C25.9439 25.6593 26.0236 25.4669 26.0236 25.2662C26.0236 25.0655 25.9439 24.873 25.802 24.7311L25.8035 24.7318ZM4.39507 18.3099C2.53699 16.451 1.51371 13.9807 1.51371 11.3529C1.51371 8.72505 2.53699 6.25391 4.39507 4.39507C6.25391 2.53699 8.72429 1.51371 11.3529 1.51371C13.9814 1.51371 16.4518 2.53699 18.3106 4.39507C20.1687 6.25391 21.1928 8.72429 21.1928 11.3529C21.1928 13.9814 20.1687 16.451 18.3106 18.3099C16.4518 20.168 13.9814 21.192 11.3536 21.192C8.72581 21.192 6.25315 20.168 4.39507 18.3099Z" fill="white"/>
</svg>
